<svg width="1280" height="640" viewBox="0 0 1280 640" xmlns="http://www.w3.org/2000/svg">
  <defs>
    <linearGradient id="bg" x1="0%" y1="0%" x2="100%" y2="100%">
      <stop offset="0%" stop-color="#0f172a"/>
      <stop offset="50%" stop-color="#1e293b"/>
      <stop offset="100%" stop-color="#0f172a"/>
    </linearGradient>
    <radialGradient id="glow" cx="50%" cy="40%" r="60%">
      <stop offset="0%" stop-color="#3b82f6" stop-opacity="0.35"/>
      <stop offset="60%" stop-color="#8b5cf6" stop-opacity="0.12"/>
      <stop offset="100%" stop-color="#0f172a" stop-opacity="0"/>
    </radialGradient>
    <linearGradient id="accent" x1="0%" y1="0%" x2="100%" y2="0%">
      <stop offset="0%" stop-color="#3b82f6"/>
      <stop offset="50%" stop-color="#8b5cf6"/>
      <stop offset="100%" stop-color="#ec4899"/>
    </linearGradient>
    <filter id="blur" x="-50%" y="-50%" width="200%" height="200%">
      <feGaussianBlur stdDeviation="60"/>
    </filter>
  </defs>

  <rect width="1280" height="640" fill="url(#bg)"/>
  <circle cx="200" cy="200" r="220" fill="url(#accent)" opacity="0.08" filter="url(#blur)"/>
  <circle cx="1100" cy="480" r="260" fill="url(#accent)" opacity="0.06" filter="url(#blur)"/>
  <rect width="1280" height="640" fill="url(#glow)"/>

  <g stroke="url(#accent)" stroke-width="0.5" opacity="0.08">
    <line x1="120" y1="0" x2="120" y2="640"/>
    <line x1="360" y1="0" x2="360" y2="640"/>
    <line x1="600" y1="0" x2="600" y2="640"/>
    <line x1="840" y1="0" x2="840" y2="640"/>
    <line x1="1080" y1="0" x2="1080" y2="640"/>
    <line x1="0" y1="128" x2="1280" y2="128"/>
    <line x1="0" y1="256" x2="1280" y2="256"/>
    <line x1="0" y1="384" x2="1280" y2="384"/>
    <line x1="0" y1="512" x2="1280" y2="512"/>
  </g>

  <g transform="translate(640, 280)">
    <rect x="-36" y="-36" width="72" height="72" rx="16" fill="url(#accent)" opacity="0.15"/>
    <rect x="-32" y="-32" width="64" height="64" rx="14" stroke="url(#accent)" stroke-width="2" fill="none"/>
    <path d="M-20 -8 L-8 -8 L-8 -20 L8 -20 L8 -8 L20 -8 L20 8 L8 8 L8 20 L-8 20 L-8 8 L-20 8 Z" fill="url(#accent)"/>
  </g>

  <text x="640" y="380" text-anchor="middle" font-family="system-ui, -apple-system, BlinkMacSystemFont, 'Segoe UI', sans-serif" font-size="72" font-weight="800" fill="#f8fafc" letter-spacing="-2">ToolKnit</text>
  <text x="640" y="430" text-anchor="middle" font-family="system-ui, -apple-system, BlinkMacSystemFont, 'Segoe UI', sans-serif" font-size="24" font-weight="400" fill="#94a3b8" letter-spacing="4">多功能工具箱 · 桌面端开源版</text>
  <text x="640" y="480" text-anchor="middle" font-family="system-ui, -apple-system, BlinkMacSystemFont, 'Segoe UI', sans-serif" font-size="18" font-weight="400" fill="#64748b" letter-spacing="2">PDF · 图片 · 音视频 · AI · 文本</text>

  <rect x="490" y="555" width="300" height="38" rx="19" fill="url(#accent)" opacity="0.15"/>
  <rect x="492" y="557" width="296" height="34" rx="17" stroke="url(#accent)" stroke-width="1.5" fill="none" opacity="0.6"/>
  <text x="640" y="580" text-anchor="middle" font-family="system-ui, -apple-system, BlinkMacSystemFont, 'Segoe UI', sans-serif" font-size="14" font-weight="600" fill="#e2e8f0">在线体验完整版 → toolknit.com</text>
</svg>
