<svg xmlns="http://www.w3.org/2000/svg" viewBox="0 0 2400 760" role="img" aria-labelledby="title desc">
  <title id="title">Thank you ToolKnit supporters placeholder</title>
  <desc id="desc">A clean placeholder for the final supporter thank-you artwork.</desc>
  <rect width="2400" height="760" fill="#ffffff"/>
  <path d="M120 580 C430 170 720 170 1030 470 S1630 730 2280 150" fill="none" stroke="#172033" stroke-width="8"/>
  <path d="M150 625 C450 255 740 240 1060 500 S1640 760 2260 220" fill="none" stroke="#d97706" stroke-width="4" stroke-dasharray="16 18"/>
  <g fill="#172033">
    <circle cx="420" cy="285" r="16"/><circle cx="1025" cy="470" r="16"/><circle cx="1580" cy="665" r="16"/><circle cx="2090" cy="330" r="16"/>
  </g>
  <g fill="none" stroke="#172033" stroke-width="7" stroke-linecap="round">
    <ellipse cx="1200" cy="375" rx="70" ry="88"/>
    <path d="M1135 315 L1070 250 M1130 360 L1040 350 M1135 415 L1060 470 M1265 315 L1330 250 M1270 360 L1360 350 M1265 415 L1340 470"/>
    <path d="M1160 285 C1185 245 1215 245 1240 285"/>
  </g>
  <g fill="#172033" font-family="Arial, 'Microsoft YaHei', sans-serif" text-anchor="middle">
    <text x="1200" y="120" font-size="64" font-weight="700" letter-spacing="5">THANK YOU</text>
    <text x="1200" y="205" font-size="32" letter-spacing="2">感谢每一位支持 ToolKnit 的朋友</text>
    <text x="1200" y="700" font-size="26" fill="#475569">将最终 AI 设计图替换为同一路径即可</text>
  </g>
</svg>
